<svg width="562" height="201" viewBox="0 0 562 201" fill="none" xmlns="http://www.w3.org/2000/svg">
<path d="M77.3 0.5H75.5C75.3 0.5 75.2 0.500003 75.1 0.800003L46.8 58.2L18.5 0.800003C18.5 0.600003 18.3 0.5 18.1 0.5H16.3C16.1 0.5 15.9 0.699994 15.8 0.899994L0 87.7C0 88 0.2 88.2 0.5 88.2H18C18.2 88.2 18.4 88 18.5 87.8L25.1 46.9L45.6 87.9C45.6 88.1 45.8 88.2 46 88.2H47.8C48 88.2 48.1 88.2 48.2 87.9L68.7 46.9L75.3 87.8C75.3 88 75.5 88.2 75.8 88.2H93.3C93.6 88.2 93.8 87.9 93.8 87.7L78 0.899994C78 0.699994 77.8 0.5 77.5 0.5H77.3Z" fill="#000100"/>
<path d="M126.1 73.4996H156.1L162.2 87.9996C162.2 88.1996 162.4 88.2996 162.6 88.2996H181.9C182.2 88.2996 182.5 87.9996 182.3 87.6996L142.8 0.899597C142.8 0.699597 142.6 0.599609 142.4 0.599609H140.5C140.3 0.599609 140.2 0.699597 140.1 0.899597L100.5 87.6996C100.4 87.9996 100.5 88.2996 100.9 88.2996H119.7C119.9 88.2996 120.1 88.1996 120.1 87.9996L126.1 73.4996ZM141 34.5996L150.8 58.2996H131.3L141 34.5996Z" fill="#000100"/>
<path d="M211.6 0.5H194C193.724 0.5 193.5 0.723858 193.5 1V87.7C193.5 87.9761 193.724 88.2 194 88.2H211.6C211.876 88.2 212.1 87.9761 212.1 87.7V1C212.1 0.723858 211.876 0.5 211.6 0.5Z" fill="#000100"/>
<path d="M274.1 68.4C271.9 71.5 267.9 73.1 262 73.1C256.1 73.1 254 72.3 250.3 70.7C246.7 69.2 243.2 66.7 239.6 63.4C239.4 63.2 239.1 63.2 238.9 63.4L228.6 76.3C228.4 76.5 228.5 76.8 228.6 76.9C232.9 80.8 237.6 83.9 242.7 86.3C248 88.7 254.3 89.9 261.7 89.9C269.1 89.9 273.8 88.8 278.7 86.5C283.6 84.2 287.4 81 290.1 76.8C292.8 72.6 294.1 67.7 294.1 62.1C294.1 56.5 292.8 51.7 290.1 48.3C287.5 44.9 284.3 42.5 280.6 40.9C276.9 39.4 272.2 37.9 266.5 36.4C262.8 35.5 260 34.6 257.9 33.9C255.8 33.2 254.1 32.2 252.8 31C251.5 29.8 250.8 28.3 250.8 26.4C250.8 23.5 252 21.2 254.3 19.5C256.6 17.8 260 16.9 264.5 16.9C269 16.9 271.7 17.5 274.7 18.8C277.5 20 280.2 21.8 282.9 24.1C283.1 24.3 283.4 24.3 283.6 24.1L293.4 11.4C293.5 11.2 293.5 10.9 293.4 10.8C290 7.5 285.9 4.9 281.2 3C276.4 1 270.9 0 264.6 0C258.3 0 252.5 1.09999 247.6 3.39999C242.7 5.69999 238.9 8.9 236.2 13C233.5 17.1 232.2 21.7 232.2 26.9C232.2 32.1 233.5 37.8 236.2 41.3C238.8 44.8 242 47.3 245.7 48.8C249.4 50.3 254.1 51.8 259.8 53.2C263.5 54.1 266.3 55 268.4 55.7C270.5 56.4 272.2 57.4 273.5 58.6C275.1 60.1 275.8 62.3 275.4 65C275.2 66.1 274.8 67.2 274.2 68.1L274.1 68.4Z" fill="#000100"/>
<path d="M330 85.0008C336.8 88.5008 343.9 90.2008 351.3 90.2008C358.7 90.2008 366 88.5008 372.9 85.0008C379.8 81.5008 385.5 76.4008 389.8 69.7008C394.2 62.9008 396.3 54.8008 396.3 45.4008C396.3 36.0008 394.1 27.5008 389.7 20.7008C385.3 13.9008 379.6 8.80077 372.7 5.40077C365.8 2.00077 358.6 0.300781 351.2 0.300781C343.8 0.300781 336.7 2.00077 329.9 5.40077C323.1 8.80077 317.5 13.9008 313.2 20.7008C308.9 27.5008 306.7 35.8008 306.7 45.4008C306.7 55.0008 308.9 62.9008 313.2 69.7008C317.5 76.5008 323.1 81.6008 329.9 85.0008H330ZM329.6 30.1008C332 26.0008 335.1 23.0008 338.9 21.0008C342.7 19.0008 346.8 18.0008 351.3 18.0008C355.8 18.0008 359.9 19.0008 363.8 21.0008C367.7 23.0008 370.9 26.0008 373.4 30.2008C375.9 34.3008 377.1 39.4008 377.1 45.4008C377.1 51.4008 375.9 56.1008 373.4 60.1008C370.9 64.1008 367.7 67.2008 363.7 69.2008C359.7 71.2008 355.6 72.2008 351.2 72.2008C346.8 72.2008 342.7 71.2008 338.9 69.2008C335 67.2008 331.9 64.1008 329.6 60.1008C327.2 56.1008 326 51.2008 326 45.4008C326 39.6008 327.2 34.3008 329.6 30.2008V30.1008Z" fill="#000100"/>
<path d="M430.2 41.0004L477.7 88.1004C477.7 88.1004 477.9 88.2004 478 88.2004H479.9C480.2 88.2004 480.4 88.0004 480.4 87.7004V0.900391C480.4 0.600391 480.2 0.400391 479.9 0.400391H462.1C461.8 0.400391 461.6 0.600391 461.6 0.900391V49.0004L414.4 0.600403C414.4 0.600403 414.2 0.500397 414.1 0.500397H412.1C411.8 0.500397 411.6 0.700397 411.6 1.0004V87.8004C411.6 88.1004 411.8 88.3004 412.1 88.3004H429.7C430 88.3004 430.2 88.1004 430.2 87.8004V41.0004Z" fill="#000100"/>
<path d="M557.2 48.3996C554.6 44.9996 551.4 42.5996 547.7 40.9996C544 39.4996 539.3 37.9996 533.6 36.4996C529.9 35.5996 527.1 34.6996 525 33.9996C522.9 33.2996 521.2 32.2996 519.9 31.0996C518.6 29.8996 517.9 28.3996 517.9 26.4996C517.9 23.5996 519.1 21.2996 521.4 19.5996C523.7 17.8996 527.1 16.9996 531.6 16.9996C536.1 16.9996 538.8 17.5996 541.8 18.8996C544.6 20.0996 547.3 21.8996 550 24.1996C550.2 24.3996 550.5 24.3996 550.7 24.1996L560.5 11.4996C560.6 11.2996 560.6 10.9996 560.5 10.8996C557.1 7.5996 553 4.99961 548.3 3.09961C543.5 1.09961 538 0.0996094 531.7 0.0996094C525.4 0.0996094 519.6 1.1996 514.7 3.4996C509.8 5.7996 506 8.99961 503.3 13.0996C500.6 17.1996 499.3 21.7996 499.3 26.9996C499.3 32.1996 500.6 37.8996 503.3 41.3996C505.9 44.8996 509.1 47.3996 512.8 48.8996C516.5 50.3996 521.2 51.8996 526.9 53.2996C530.6 54.1996 533.4 55.0996 535.5 55.7996C537.6 56.4996 539.3 57.4996 540.6 58.6996C542.2 60.1996 542.9 62.3996 542.5 65.0996C542.3 66.1996 541.9 67.2996 541.3 68.1996C539.1 71.2996 535.1 72.8996 529.2 72.8996C523.3 72.8996 521.2 72.0996 517.5 70.4996C513.9 68.9996 510.4 66.4996 506.8 63.1996C506.6 62.9996 506.3 62.9996 506.1 63.1996L495.8 76.0996C495.6 76.2996 495.7 76.5996 495.8 76.6996C500.1 80.5996 504.8 83.6996 509.9 86.0996C515.2 88.4996 521.5 89.6996 528.9 89.6996C536.3 89.6996 541 88.5996 545.9 86.2996C550.8 83.9996 554.6 80.7996 557.3 76.5996C560 72.3996 561.3 67.4996 561.3 61.8996C561.3 56.2996 560 51.4996 557.3 48.0996L557.2 48.3996Z" fill="#000100"/>
<path d="M26.6001 157.7C22.7001 156 17.9001 155.1 12.3001 155.1H0.600098C0.300098 155.1 0.100098 155.3 0.100098 155.6V199.5C0.100098 199.8 0.300098 200 0.600098 200H12.3001C17.6001 200 22.3001 199.1 26.2001 197.3C30.1001 195.5 33.2001 192.9 35.3001 189.4C37.4001 186 38.5001 181.8 38.5001 177C38.5001 172.2 37.5001 168.5 35.5001 165.2C33.5001 161.9 30.5001 159.4 26.6001 157.7ZM26.6001 184.7C25.3001 186.8 23.4001 188.4 21.0001 189.5C18.6001 190.6 15.7001 191.1 12.4001 191.1H9.7001V163.6H12.4001C17.8001 163.6 21.8001 164.7 24.5001 166.8C27.2001 168.9 28.6001 172.3 28.6001 176.8C28.6001 181.3 27.9001 182.5 26.6001 184.6V184.7Z" fill="#000100"/>
<path d="M102.8 180.8C102.8 187.9 100 191.5 94.3002 191.5C88.6002 191.5 89.4002 190.6 87.9002 188.9C86.4002 187.1 85.7002 184.5 85.7002 180.9V155.6C85.7002 155.3 85.6002 155.1 85.3002 155.1H76.6002C76.3002 155.1 76.1002 155.3 76.1002 155.6V181.8C76.0002 185.9 76.7002 189.3 78.3002 192.2C79.8002 195.1 82.0002 197.2 84.7002 198.7C87.4002 200.2 90.6002 200.9 94.2002 200.9C97.8002 200.9 100.9 200.2 103.7 198.7C106.4 197.2 108.5 195.1 110 192.2C111.5 189.4 112.3 185.9 112.3 181.8V155.6C112.3 155.3 112.2 155.1 111.9 155.1H103.2C102.9 155.1 102.7 155.3 102.7 155.6V180.9L102.8 180.8Z" fill="#000100"/>
<path d="M235.4 155H234.3C234.1 155 234 155 233.9 155.3L219.8 184.2L205.7 155.3C205.7 155.1 205.5 155 205.3 155H204.2C204 155 203.8 155.2 203.7 155.4L195.6 199.3C195.6 199.6 195.8 199.8 196.1 199.8H204.7C204.9 199.8 205.1 199.6 205.2 199.4L208.6 178.3L219 199.5C219 199.7 219.2 199.8 219.4 199.8H220.5C220.7 199.8 220.8 199.8 220.9 199.5L231.3 178.3L234.7 199.4C234.7 199.6 234.9 199.8 235.2 199.8H243.8C244.1 199.8 244.3 199.5 244.3 199.3L236.2 155.4C236.2 155.2 236 155 235.7 155H235.4Z" fill="#000100"/>
<path d="M313.8 156.7C310.2 154.9 306.5 154 302.6 154C298.7 154 295.1 154.9 291.5 156.6C288 158.4 285.1 161 282.8 164.6C280.6 168.2 279.4 172.4 279.4 177.5C279.4 182.6 280.5 186.6 282.8 190.1C285 193.6 287.9 196.3 291.5 198.1C295 199.9 298.7 200.8 302.6 200.8C306.5 200.8 310.2 199.9 313.8 198.1C317.4 196.3 320.3 193.6 322.6 190.1C324.9 186.6 326 182.4 326 177.5C326 172.6 324.9 168.2 322.6 164.7C320.3 161.2 317.4 158.5 313.8 156.7ZM314.2 185.2C312.9 187.3 311.2 188.9 309.2 189.9C307.1 191 305 191.5 302.7 191.5C300.4 191.5 298.3 191 296.3 189.9C294.3 188.8 292.7 187.3 291.4 185.2C290.2 183.1 289.6 180.6 289.6 177.6C289.6 174.6 290.2 171.8 291.4 169.7C292.6 167.6 294.2 166 296.2 165C298.2 164 300.3 163.5 302.6 163.5C304.9 163.5 307.1 164 309.1 165C311.1 166 312.8 167.6 314.1 169.8C315.4 171.9 316 174.6 316 177.7C316 180.8 315.4 183.2 314.1 185.3L314.2 185.2Z" fill="#000100"/>
<path d="M394.1 179.5L370.1 155.2C370.1 155.2 369.9 155.1 369.8 155.1H368.6C368.3 155.1 368.1 155.3 368.1 155.6V199.5C368.1 199.8 368.3 200 368.6 200H377.3C377.6 200 377.8 199.8 377.8 199.5V175.4L401.6 199.8C401.6 199.8 401.8 199.9 401.9 199.9H403.4C403.7 199.9 403.9 199.7 403.9 199.4V155.5C403.9 155.2 403.7 155 403.4 155H394.6C394.3 155 394.1 155.2 394.1 155.5V179.5Z" fill="#000100"/>
<path d="M475.8 157.7C471.9 156 467.1 155.1 461.5 155.1H449.8C449.5 155.1 449.3 155.3 449.3 155.6V199.5C449.3 199.8 449.5 200 449.8 200H461.5C466.8 200 471.5 199.1 475.4 197.3C479.3 195.5 482.4 192.9 484.5 189.4C486.6 186 487.7 181.8 487.7 177C487.7 172.2 486.7 168.5 484.7 165.2C482.7 161.9 479.7 159.4 475.8 157.7ZM475.9 184.7C474.6 186.8 472.7 188.4 470.3 189.5C467.9 190.6 465 191.1 461.7 191.1H459V163.6H461.7C467.1 163.6 471.1 164.7 473.8 166.8C476.5 168.9 477.9 172.3 477.9 176.8C477.9 181.3 477.2 182.5 475.9 184.6V184.7Z" fill="#000100"/>
<path d="M540.6 180.901H557.8C558.1 180.901 558.3 180.701 558.3 180.401V172.801C558.3 172.501 558.1 172.301 557.8 172.301H540.6V163.601H558.8C559.1 163.601 559.3 163.401 559.3 163.101V155.301C559.3 155.001 559.1 154.801 558.8 154.801H531.6C531.3 154.801 531.1 155.001 531.1 155.301V199.201C531.1 199.501 531.3 199.701 531.6 199.701H559.5C559.8 199.701 560 199.501 560 199.201V191.401C560 191.101 559.8 190.901 559.5 190.901H540.7V180.701L540.6 180.901Z" fill="#000100"/>
<path d="M559.2 119.5H0V124.4H559.2V119.5Z" fill="#000100"/>
</svg>
