<svg width="155" height="24" viewBox="0 0 155 24" fill="none" xmlns="http://www.w3.org/2000/svg">
<path d="M36.7695 22.9735L32.4865 14.869H32.4543V22.9735H25.3053V0.382893H35.9322C37.7785 0.382893 39.3564 0.712605 40.666 1.37203C41.9756 2.01018 42.9524 2.89296 43.5964 4.02037C44.2619 5.1265 44.5947 6.38154 44.5947 7.78548C44.5947 9.29577 44.1653 10.6359 43.3066 11.8058C42.4693 12.9758 41.2564 13.816 39.6677 14.3266L44.6269 22.9735H36.7695ZM32.4543 10.1466H35.2881C35.9751 10.1466 36.4904 9.99774 36.8339 9.69994C37.1774 9.38086 37.3491 8.89161 37.3491 8.23218C37.3491 7.63657 37.1666 7.16859 36.8017 6.82824C36.4582 6.4879 35.9537 6.31772 35.2881 6.31772H32.4543V10.1466Z" fill="#000100"/>
<path d="M67.9713 0.382893V22.9735H60.8223V14.167H54.0276V22.9735H46.8786V0.382893H54.0276V8.51935H60.8223V0.382893H67.9713Z" fill="#000100"/>
<path d="M78.3368 0.382893V22.9735H71.1878V0.382893H78.3368Z" fill="#000100"/>
<path d="M103.431 22.9735H96.2823L88.7146 11.6144V22.9735H81.5656V0.382893H88.7146L96.2823 11.9335V0.382893H103.431V22.9735Z" fill="#000100"/>
<path d="M117.771 23.1969C115.624 23.1969 113.649 22.697 111.846 21.6972C110.064 20.6975 108.647 19.3148 107.595 17.5492C106.543 15.7837 106.017 13.7948 106.017 11.5825C106.017 9.37022 106.543 7.38131 107.595 5.61575C108.647 3.85019 110.064 2.47816 111.846 1.49966C113.649 0.499887 115.624 0 117.771 0C119.918 0 121.882 0.499887 123.664 1.49966C125.446 2.47816 126.852 3.85019 127.883 5.61575C128.935 7.38131 129.461 9.37022 129.461 11.5825C129.461 13.7948 128.935 15.7837 127.883 17.5492C126.852 19.3148 125.435 20.6975 123.632 21.6972C121.85 22.697 119.896 23.1969 117.771 23.1969ZM117.771 16.592C119.188 16.592 120.283 16.1453 121.056 15.2519C121.829 14.3372 122.215 13.1141 122.215 11.5825C122.215 10.0296 121.829 8.80652 121.056 7.91311C120.283 6.99842 119.188 6.54108 117.771 6.54108C116.333 6.54108 115.227 6.99842 114.454 7.91311C113.681 8.80652 113.295 10.0296 113.295 11.5825C113.295 13.1141 113.681 14.3372 114.454 15.2519C115.227 16.1453 116.333 16.592 117.771 16.592Z" fill="#000100"/>
<path d="M155 0.382893L147.336 22.9735H138.094L130.429 0.382893H138.029L142.731 15.9219L147.4 0.382893H155Z" fill="#000100"/>
<path d="M19.2441 0C20.8454 0.000140925 22.1434 1.29818 22.1436 2.89941V20.1973C22.1434 21.8539 20.8003 23.1972 19.1436 23.1973H3C1.34338 23.1971 0.000203224 21.8539 0 20.1973V3C0 1.34322 1.34325 0.000124552 3 0H19.2441ZM11.5508 6.81152L7.40332 18.4824H11.1348L11.6953 16.7188H15.4736L16.0342 18.4824H19.7812L15.6504 6.81152H11.5508ZM3.38086 18.4619H6.41016V10.4102H3.38086V18.4619ZM14.6094 13.9658H12.5596L13.584 10.7188L14.6094 13.9658ZM4.90918 6.62695C4.38151 6.62696 3.95807 6.77945 3.63965 7.08398C3.32131 7.37899 3.16212 7.75517 3.16211 8.21191C3.16211 8.65905 3.32145 9.03022 3.63965 9.3252C3.95807 9.62022 4.38151 9.76757 4.90918 9.76758C5.42776 9.76758 5.84661 9.62022 6.16504 9.3252C6.48326 9.03022 6.64258 8.65907 6.64258 8.21191C6.64257 7.75516 6.48341 7.37899 6.16504 7.08398C5.84661 6.77944 5.42776 6.62695 4.90918 6.62695Z" fill="#000100"/>
</svg>
