<svg width="213" height="68" viewBox="0 0 213 68" fill="none" xmlns="http://www.w3.org/2000/svg">
<g clip-path="url(#clip0_7681_66899)">
<path d="M44.4531 22.8129V44.9339C44.4531 45.5025 44.9339 45.9645 45.5349 45.9645H59.7279C60.3197 45.9645 60.8098 45.5025 60.8098 44.9339V43.5214C60.8098 42.9528 60.329 42.482 59.7279 42.482H48.2071V25.9223C48.2071 25.4426 48.1886 25.1494 47.4582 24.5719C47.4582 24.5719 44.9432 22.6441 44.8692 22.5819C44.7583 22.4931 44.675 22.4665 44.5733 22.5286C44.5086 22.5642 44.4624 22.6441 44.4624 22.8129" fill="white"/>
<path d="M77.5371 23.3458C77.4261 23.097 77.1672 22.9371 76.8898 22.9371H74.2916C74.0142 22.9371 73.7553 23.097 73.6444 23.3458L63.8156 45.0493C63.7231 45.2536 63.7416 45.4935 63.8711 45.6889C64.0005 45.8755 64.2224 45.991 64.4628 45.991H67.1258C67.4032 45.991 67.662 45.8311 67.773 45.5823L70.0383 40.5007H81.0691L83.3252 45.5823C83.4362 45.8311 83.6858 45.991 83.9725 45.991H86.7001C86.9405 45.991 87.1532 45.8755 87.2919 45.6889C87.4213 45.5023 87.4398 45.2625 87.3473 45.0493L77.5463 23.3458H77.5371ZM79.3956 36.7694H71.6934L75.5214 28.152L79.3956 36.7694Z" fill="white"/>
<path d="M99.7927 22.9462H91.5543C91.1659 22.9462 90.8516 23.2482 90.8516 23.6213V45.3248C90.8516 45.6979 91.1659 46 91.5543 46H94.06C94.4484 46 94.7627 45.6979 94.7627 45.3248V39.1416H99.7927C105.581 39.1416 109.048 36.0589 109.048 30.9062C109.048 25.7535 105.59 22.9462 99.7927 22.9462ZM94.7627 26.6863H99.691C103.362 26.6863 105.22 28.1255 105.22 30.9773C105.22 33.829 103.362 35.4192 99.691 35.4192H94.7627V26.6952V26.6863Z" fill="white"/>
<path d="M128.817 42.2865H116.741V36.1921H127.088C127.476 36.1921 127.791 35.89 127.791 35.5169V33.1271C127.791 32.754 127.476 32.4519 127.088 32.4519H116.741V26.6685H128.401C128.789 26.6685 129.103 26.3664 129.103 25.9933V23.6035C129.103 23.2304 128.789 22.9283 128.401 22.9283H113.533C113.144 22.9283 112.83 23.2304 112.83 23.6035V45.307C112.83 45.6801 113.144 45.9822 113.533 45.9822H128.817C129.205 45.9822 129.52 45.6801 129.52 45.307V42.9527C129.52 42.5796 129.205 42.2776 128.817 42.2776" fill="white"/>
<path d="M151.84 22.9462H149.269C149.02 22.9462 148.788 23.0705 148.668 23.2749L142.251 33.6247L135.751 23.2749C135.622 23.0705 135.391 22.9462 135.15 22.9462H132.552C132.302 22.9462 132.071 23.0794 131.942 23.2838C131.812 23.497 131.812 23.7457 131.942 23.9589L140.337 38.1555V45.3248C140.337 45.6979 140.652 46 141.04 46H143.509C143.897 46 144.212 45.6979 144.212 45.3248V38.0578L152.45 23.9501C152.57 23.7457 152.57 23.4881 152.45 23.2838C152.321 23.0794 152.089 22.9462 151.84 22.9462Z" fill="white"/>
<path d="M169.861 38.2619C172.801 36.9826 174.41 34.4063 174.41 30.8971C174.41 25.9133 170.915 22.9371 165.062 22.9371H156.731C156.343 22.9371 156.028 23.2392 156.028 23.6123V45.3158C156.028 45.6889 156.343 45.991 156.731 45.991H159.237C159.625 45.991 159.939 45.6889 159.939 45.3158V39.1326H165.062C165.432 39.1326 165.792 39.1148 166.162 39.097L170.48 45.6711C170.61 45.8666 170.832 45.9821 171.072 45.9821H173.92C174.179 45.9821 174.419 45.8488 174.539 45.6267C174.66 45.4046 174.65 45.1381 174.502 44.9338L169.851 38.2531L169.861 38.2619ZM159.939 26.6773H165.062C168.733 26.6773 170.591 28.1165 170.591 30.9682C170.591 33.82 168.733 35.4102 165.062 35.4102H159.939V26.6862V26.6773Z" fill="white"/>
<path d="M195.297 42.2865H183.222V36.1921H193.568C193.957 36.1921 194.271 35.89 194.271 35.5169V33.1271C194.271 32.754 193.957 32.4519 193.568 32.4519H183.222V26.6685H194.881C195.27 26.6685 195.584 26.3664 195.584 25.9933V23.6035C195.584 23.2304 195.27 22.9283 194.881 22.9283H180.013C179.625 22.9283 179.311 23.2304 179.311 23.6035V45.307C179.311 45.6801 179.625 45.9822 180.013 45.9822H195.297C195.686 45.9822 196 45.6801 196 45.307V42.9527C196 42.5796 195.686 42.2776 195.297 42.2776" fill="white"/>
<path d="M34.1348 27.2104H37.5651C37.8055 27.2104 37.9905 27.397 37.9905 27.628V30.9239C37.9905 31.1549 37.7963 31.3415 37.5651 31.3415H34.1348C33.8944 31.3415 33.7002 31.1549 33.7002 30.9239V27.628C33.7002 27.397 33.8944 27.2104 34.1348 27.2104Z" fill="#EB002D"/>
<path d="M28.458 32.7184H31.8884C32.1288 32.7184 32.3137 32.9049 32.3137 33.1359V36.4319C32.3137 36.6629 32.1195 36.8494 31.8884 36.8494H28.458C28.2176 36.8494 28.0234 36.6629 28.0234 36.4319V33.1359C28.0234 32.9049 28.2176 32.7184 28.458 32.7184Z" fill="#EB002D"/>
<path d="M41.8091 20.2365C38.3603 17.5802 36.8994 16.4697 34.3659 14.4886C33.9498 14.1688 33.4782 14 33.0159 14H32.9697C32.4981 14 32.0266 14.1688 31.6197 14.4886C27.801 17.4647 23.6217 20.6807 18.9616 24.261C18.2959 24.7762 18 25.3626 18 26.171C18.0185 29.9467 18 45.2271 18 45.2271C18.0185 45.6624 18.1572 45.9555 18.7397 45.9644C18.8691 45.9644 20.7461 45.9644 20.7461 45.9644C21.1992 45.9467 21.4951 45.8223 21.5136 45.2537C21.5228 44.7651 21.5136 30.6663 21.5136 26.9972C21.5136 26.6952 21.5968 26.5264 21.8464 26.3309C24.5833 24.2432 32.7293 17.98 32.7293 17.98C32.8033 17.9178 32.8865 17.8645 32.9697 17.8023C33.0529 17.8645 33.1361 17.9178 33.2193 17.98C33.2193 17.98 41.2358 24.101 41.7259 24.4831C42.216 24.8651 42.2529 24.412 42.2529 24.412V21.0005C42.2529 20.4764 41.9016 20.3165 41.7906 20.2276" fill="#EB002D"/>
</g>
<defs>
<clipPath id="clip0_7681_66899">
<rect width="213" height="68" fill="white"/>
</clipPath>
</defs>
</svg>
