<svg width="526" height="70" viewBox="0 0 526 70" fill="none" xmlns="http://www.w3.org/2000/svg">
<path d="M169.163 46.6885H169.545L177.193 19.9658H187.939L173.715 60.2871C173.032 62.2455 172.102 63.9513 170.927 65.4043C169.767 66.8731 168.298 68.0023 166.519 68.792C164.739 69.5975 162.595 70 160.085 70C158.798 70 157.591 69.8977 156.463 69.6924C155.351 69.5029 154.43 69.258 153.699 68.958L155.986 61.4238C157.178 61.7871 158.25 61.985 159.203 62.0166C160.172 62.0482 161.006 61.8263 161.705 61.3525C162.42 60.8787 163 60.0736 163.444 58.9365L164.04 57.3965L150.911 19.9658H161.586L169.163 46.6885ZM10.8672 28.9668C11.4549 28.976 12.033 29.1184 12.5576 29.3818C13.0822 29.6453 13.5403 30.0235 13.8965 30.4883C14.2525 30.9529 14.498 31.4919 14.6143 32.0645C14.7305 32.6372 14.7144 33.2292 14.5674 33.7949L8.52637 58.8418C8.40712 59.3351 8.19162 59.8006 7.8916 60.2109C7.59163 60.6211 7.21331 60.9685 6.77832 61.2334C6.3432 61.4983 5.85945 61.6757 5.35547 61.7549C4.85159 61.834 4.33682 61.8138 3.84082 61.6953C3.34481 61.5768 2.87749 61.3617 2.46484 61.0635C2.05219 60.7652 1.70202 60.3896 1.43555 59.957C1.16906 59.5244 0.990818 59.0431 0.911133 58.542C0.831538 58.0411 0.851496 57.5292 0.970703 57.0361L7.05078 31.9316C7.2553 31.0808 7.74414 30.3237 8.4375 29.7852C9.13078 29.2468 9.98754 28.9582 10.8672 28.9668ZM23.3076 0C27.4287 0 31.3818 1.62811 34.2959 4.52539C37.2097 7.42263 38.8467 11.3521 38.8467 15.4492V19.3115C40.4116 20.5006 41.72 21.9905 42.6943 23.6924C43.6685 25.3941 44.2892 27.273 44.5186 29.2178L53.0742 34.3262C53.4933 34.5694 53.8414 34.9175 54.083 35.3359C54.3246 35.7543 54.4511 36.2285 54.4512 36.7109C54.4512 37.1933 54.3246 37.6676 54.083 38.0859C53.8414 38.5043 53.4933 38.8525 53.0742 39.0957L45.7705 43.4512C47.9264 45.3823 52.4432 50.142 52.4434 56.0801C52.4229 57.6031 51.7995 59.0571 50.709 60.127C49.6185 61.1967 48.1481 61.7969 46.6162 61.7969H40.7891C39.7588 61.7969 38.7705 61.3894 38.042 60.665C37.3137 59.9408 36.9044 58.9587 36.9043 57.9346V33.3506C36.9077 30.7395 35.9013 28.2272 34.0938 26.333C32.2861 24.4387 29.8152 23.3076 27.1924 23.1738H15.5391C11.418 23.1738 7.46484 21.5457 4.55078 18.6484C1.63696 15.7512 5.24733e-06 11.8218 0 7.72461V3.74609C-0.00123593 3.25396 0.0953839 2.76646 0.28418 2.31152C0.473048 1.85652 0.750542 1.44282 1.10059 1.09473C1.45069 0.746639 1.86656 0.470049 2.32422 0.282227C2.78197 0.0944025 3.27336 -0.00127386 3.76855 0H23.3076ZM261.043 19.4922C263.457 19.4922 265.705 19.8785 267.786 20.6523C269.883 21.4104 271.71 22.5559 273.267 24.0879C274.839 25.6198 276.062 27.5467 276.936 29.8682C277.809 32.174 278.246 34.8752 278.246 37.9707V40.7422H253.322V40.7656C253.322 42.5659 253.656 44.1218 254.323 45.4326C255.006 46.7435 255.967 47.7551 257.206 48.4658C258.445 49.1765 259.915 49.5312 261.614 49.5312C262.742 49.5312 263.775 49.3735 264.712 49.0576C265.649 48.7417 266.452 48.2685 267.119 47.6367C267.786 47.005 268.294 46.2305 268.644 45.3145L278.032 45.9307C277.556 48.1733 276.578 50.1316 275.101 51.8057C273.639 53.4639 271.749 54.7596 269.43 55.6914C267.126 56.6073 264.465 57.0654 261.447 57.0654C257.683 57.0654 254.442 56.3071 251.726 54.791C249.025 53.2591 246.945 51.0951 245.483 48.2998C244.022 45.4886 243.291 42.1639 243.291 38.3262C243.291 34.5831 244.022 31.2978 245.483 28.4707C246.945 25.6438 249.002 23.4407 251.654 21.8613C254.323 20.282 257.453 19.4922 261.043 19.4922ZM343.099 19.4922C346.292 19.4922 349.088 20.0687 351.486 21.2217C353.885 22.3746 355.784 23.9934 357.182 26.0781C358.579 28.1628 359.349 30.6108 359.492 33.4219H349.914C349.644 31.6056 348.929 30.1446 347.77 29.0391C346.626 27.9177 345.124 27.3574 343.266 27.3574C341.693 27.3575 340.319 27.7839 339.144 28.6367C337.984 29.4738 337.079 30.6978 336.428 32.3086C335.776 33.9195 335.45 35.8701 335.45 38.1602C335.45 40.4818 335.768 42.4563 336.403 44.083C337.055 45.7095 337.968 46.9489 339.144 47.8018C340.319 48.6546 341.693 49.081 343.266 49.0811C344.425 49.0811 345.466 48.8449 346.388 48.3711C347.325 47.8973 348.095 47.2097 348.698 46.3096C349.318 45.3935 349.723 44.2959 349.914 43.0166H359.492C359.333 45.7962 358.571 48.2441 357.205 50.3604C355.855 52.4609 353.988 54.1036 351.605 55.2881C349.223 56.4726 346.403 57.0654 343.146 57.0654C339.398 57.0654 336.173 56.2756 333.473 54.6963C330.788 53.1011 328.723 50.8896 327.277 48.0625C325.848 45.2355 325.133 41.9816 325.133 38.3018C325.133 34.5746 325.856 31.3053 327.302 28.4941C328.763 25.6672 330.836 23.4641 333.521 21.8848C336.205 20.2897 339.398 19.4923 343.099 19.4922ZM450.085 19.4922C453.786 19.4922 456.979 20.282 459.664 21.8613C462.364 23.4249 464.445 25.6203 465.906 28.4473C467.368 31.2584 468.099 34.5431 468.099 38.3018C468.099 42.0291 467.368 45.3067 465.906 48.1338C464.445 50.9449 462.364 53.1404 459.664 54.7197C456.979 56.2833 453.786 57.0654 450.085 57.0654C446.384 57.0654 443.183 56.2833 440.482 54.7197C437.798 53.1404 435.725 50.945 434.264 48.1338C432.802 45.3067 432.071 42.0291 432.071 38.3018C432.071 34.5432 432.802 31.2584 434.264 28.4473C435.725 25.6203 437.798 23.4249 440.482 21.8613C443.183 20.282 446.384 19.4922 450.085 19.4922ZM491.235 19.4922C494.937 19.4922 498.13 20.282 500.814 21.8613C503.515 23.4249 505.595 25.6203 507.057 28.4473C508.518 31.2584 509.249 34.5431 509.249 38.3018C509.249 42.0291 508.518 45.3067 507.057 48.1338C505.595 50.9449 503.515 53.1404 500.814 54.7197C498.13 56.2833 494.937 57.0654 491.235 57.0654C487.534 57.0654 484.333 56.2833 481.633 54.7197C478.948 53.1404 476.875 50.945 475.414 48.1338C473.953 45.3067 473.222 42.0291 473.222 38.3018C473.222 34.5431 473.953 31.2584 475.414 28.4473C476.875 25.6203 478.948 23.4249 481.633 21.8613C484.333 20.282 487.534 19.4922 491.235 19.4922ZM420.443 19.9658H427.33V27.5469H420.443V45.1729C420.443 46.1042 420.586 46.8305 420.872 47.3516C421.158 47.8568 421.555 48.2126 422.063 48.418C422.588 48.6233 423.192 48.7256 423.875 48.7256C424.351 48.7256 424.828 48.6864 425.305 48.6074C425.781 48.5127 426.146 48.4419 426.4 48.3945L427.997 55.9043C427.489 56.0622 426.774 56.2439 425.853 56.4492C424.931 56.6703 423.811 56.8042 422.493 56.8516C420.047 56.9463 417.902 56.6231 416.06 55.8809C414.233 55.1386 412.811 53.9854 411.794 52.4219C410.777 50.8583 410.277 48.8839 410.293 46.499V27.5469H405.289V19.9658H410.293V11.248H420.443V19.9658ZM135.578 19.4922C138.993 19.4922 141.766 20.5736 143.895 22.7373C146.039 24.8852 147.11 27.9336 147.11 31.8818V56.3545H136.984V33.8721C136.984 31.8506 136.444 30.334 135.364 29.3232C134.284 28.3125 132.934 27.8077 131.313 27.8076C129.471 27.8076 128.033 28.3918 127 29.5605C125.968 30.7135 125.451 32.2377 125.451 34.1328V56.3545H115.61V33.6592C115.61 31.8745 115.094 30.4527 114.062 29.3945C113.045 28.3365 111.703 27.8076 110.035 27.8076C108.907 27.8076 107.891 28.0917 106.985 28.6602C106.096 29.2129 105.388 29.9951 104.864 31.0059C104.34 32.0008 104.078 33.1694 104.078 34.5117V56.3545H93.9277V19.9658H103.602V26.3857H104.03C104.793 24.2537 106.064 22.5717 107.843 21.3398C109.622 20.108 111.751 19.4922 114.229 19.4922C116.738 19.4922 118.875 20.1156 120.639 21.3633C122.402 22.5952 123.577 24.2695 124.165 26.3857H124.546C125.292 24.3011 126.643 22.6354 128.597 21.3877C130.566 20.1242 132.894 19.4922 135.578 19.4922ZM207.406 5.5625C208.963 5.5625 210.385 5.68009 211.672 5.91699C212.974 6.1539 213.944 6.36712 214.579 6.55664L212.768 14.1377C212.371 14.0114 211.878 13.8927 211.291 13.7822C210.719 13.6717 210.131 13.6172 209.527 13.6172C208.034 13.6172 206.994 13.9644 206.406 14.6592C205.819 15.3382 205.524 16.2936 205.524 17.5254V19.9658H212.815V27.5469H205.524V56.3545H195.397V27.5469H190.227V19.9658H195.397V17.3359C195.397 14.6985 195.914 12.5107 196.946 10.7734C197.995 9.03632 199.425 7.73383 201.235 6.86523C203.046 5.99664 205.103 5.56255 207.406 5.5625ZM238.031 19.4443C238.539 19.4443 239.087 19.4759 239.675 19.5391C240.262 19.6022 240.779 19.6893 241.224 19.7998V28.7549C240.747 28.6128 240.088 28.4865 239.246 28.376C238.404 28.2654 237.633 28.21 236.935 28.21C235.442 28.21 234.107 28.5342 232.932 29.1816C231.772 29.8134 230.851 30.6979 230.168 31.835C229.501 32.9721 229.167 34.2831 229.167 35.7676V56.3545H219.017V19.9658H228.857V26.3145H229.238C229.905 24.0561 231.026 22.3502 232.599 21.1973C234.171 20.0287 235.982 19.4443 238.031 19.4443ZM305.981 19.4922C308.523 19.4922 310.74 20.0448 312.63 21.1504C314.52 22.2559 315.99 23.8356 317.038 25.8887C318.086 27.926 318.61 30.3587 318.61 33.1855V56.3545H308.46V34.9854C308.476 32.7585 307.904 31.0211 306.744 29.7734C305.585 28.5101 303.988 27.878 301.955 27.8779C300.589 27.8779 299.381 28.1706 298.333 28.7549C297.3 29.3392 296.49 30.1921 295.902 31.3135C295.33 32.419 295.036 33.7538 295.021 35.3174V56.3545H284.87V19.9658H294.544V26.3857H294.974C295.784 24.2695 297.142 22.5951 299.048 21.3633C300.954 20.1157 303.265 19.4922 305.981 19.4922ZM375.856 26.3857H376.285C377.111 24.2379 378.445 22.5559 380.288 21.3398C382.131 20.108 384.442 19.4922 387.222 19.4922C389.763 19.4922 391.98 20.0448 393.87 21.1504C395.776 22.2401 397.253 23.8114 398.302 25.8643C399.366 27.9016 399.89 30.3427 399.874 33.1855V56.3545H389.724V34.9854C389.739 32.7427 389.167 30.9977 388.008 29.75C386.864 28.5025 385.26 27.878 383.195 27.8779C381.813 27.8779 380.59 28.1705 379.525 28.7549C378.477 29.3392 377.651 30.1923 377.048 31.3135C376.46 32.419 376.157 33.7538 376.142 35.3174V56.3545H365.991V7.83594H375.856V26.3857ZM526 56.3545H515.85V7.83594H526V56.3545ZM450.133 27.1914C448.433 27.1914 447.003 27.6733 445.844 28.6367C444.7 29.6001 443.835 30.9111 443.247 32.5693C442.675 34.2277 442.389 36.1151 442.389 38.2314C442.389 40.3477 442.675 42.2353 443.247 43.8936C443.835 45.5516 444.7 46.8629 445.844 47.8262C447.003 48.7737 448.433 49.2471 450.133 49.2471C451.817 49.2471 453.223 48.7738 454.351 47.8262C455.478 46.8629 456.328 45.5517 456.899 43.8936C457.487 42.2353 457.781 40.3477 457.781 38.2314C457.781 36.1151 457.487 34.2277 456.899 32.5693C456.328 30.9111 455.478 29.6001 454.351 28.6367C453.223 27.6733 451.817 27.1914 450.133 27.1914ZM491.283 27.1914C489.583 27.1914 488.154 27.6733 486.994 28.6367C485.85 29.6001 484.984 30.9111 484.396 32.5693C483.825 34.2276 483.539 36.1152 483.539 38.2314C483.539 40.3477 483.825 42.2353 484.396 43.8936C484.984 45.5518 485.85 46.8628 486.994 47.8262C488.154 48.7737 489.584 49.2471 491.283 49.2471C492.967 49.2471 494.373 48.7738 495.501 47.8262C496.629 46.8629 497.478 45.5517 498.05 43.8936C498.638 42.2353 498.932 40.3477 498.932 38.2314C498.932 36.1151 498.638 34.2276 498.05 32.5693C497.478 30.9112 496.629 29.6001 495.501 28.6367C494.373 27.6733 492.967 27.1914 491.283 27.1914ZM26.2217 28.9668C28.3669 28.9669 30.1062 30.6963 30.1064 32.8291C30.1064 34.9621 28.367 36.6913 26.2217 36.6914C24.0762 36.6914 22.3369 34.9622 22.3369 32.8291C22.3371 30.6962 24.0764 28.9668 26.2217 28.9668ZM261.209 27.0254C259.668 27.0255 258.303 27.3812 257.111 28.0918C255.936 28.7867 255.014 29.7266 254.347 30.9111C253.731 31.9892 253.394 33.1817 253.333 34.4883H268.691C268.691 33.0354 268.374 31.7482 267.738 30.627C267.103 29.5057 266.221 28.6288 265.094 27.9971C263.982 27.3495 262.686 27.0254 261.209 27.0254ZM7.76953 7.72461C7.76954 9.77325 8.58795 11.7379 10.0449 13.1865C11.502 14.6352 13.4785 15.4492 15.5391 15.4492H31.0771C31.0771 13.4006 30.2587 11.4359 28.8018 9.9873C27.3447 8.53867 25.3682 7.72461 23.3076 7.72461H7.76953Z" fill="#050505"/>
</svg>
