<svg width="571" height="264" viewBox="0 0 571 264" fill="none" xmlns="http://www.w3.org/2000/svg">
<path d="M57 167H0V172H57V167Z" fill="#000100"/>
<path d="M148 167H89V172H148V167Z" fill="#000100"/>
<path d="M571 167H189V172H571V167Z" fill="#000100"/>
<path d="M75.784 192.26C72.8587 192.26 70.1626 190.304 69.3133 187.31C65.5706 174.113 60.8879 156.542 58.394 135.471C49.9551 135.074 43.3496 132.845 38.3213 128.688C32.8212 124.162 29.5454 117.38 29.0601 109.572C28.5209 100.835 31.6349 91.9877 37.3777 85.9029C41.7454 81.2948 47.3668 77.9994 53.6623 76.1807C53.5275 72.0239 53.4466 68.2362 53.4601 64.8998C53.5005 41.9141 59.1893 26.3669 70.8501 17.3559C82.1603 8.61827 98.8359 7.56538 112.33 14.7305C124.139 21.0068 133.158 32.903 137.067 47.3973C142.513 67.5662 136.824 90.0871 123.451 107.015C142.041 125.311 164.616 157.528 180.159 177.711C182.451 180.692 181.925 184.985 179 187.31C176.061 189.634 171.828 189.101 169.537 186.134C154.29 166.334 132.025 134.527 114.069 116.847C110.753 119.718 107.14 122.303 103.284 124.531C94.0502 129.851 83.3062 133.337 71.8881 134.801C74.3011 155.01 80.5602 177.591 82.2412 183.536C83.2657 187.159 81.2032 190.947 77.6308 192C77.0107 192.178 76.3771 192.273 75.757 192.273L75.784 192.26ZM54.3498 90.4426C51.5458 91.6322 49.0788 93.2867 47.1107 95.3788C43.9697 98.6879 42.2172 103.816 42.5138 108.725C42.7564 112.676 44.2797 115.999 46.8141 118.077C49.1867 120.033 52.5029 121.222 56.8841 121.66C55.7922 110.789 54.9429 100.096 54.3633 90.4426H54.3498ZM67.736 88.2958C68.3292 98.4144 69.2324 109.736 70.4052 121.209C80.0169 119.964 88.9815 117.052 96.652 112.635C99.2672 111.131 101.734 109.408 104.053 107.494C103.595 107.084 103.123 106.687 102.664 106.277C95.2905 99.8912 85.3957 92.1928 74.3146 89.335C72.1172 88.7607 69.9064 88.4188 67.736 88.2958ZM67.1025 74.5672C70.567 74.6766 74.0989 75.1826 77.6308 76.0987C91.408 79.6539 102.92 88.5556 111.413 95.8984C112.101 96.5001 112.788 97.0881 113.462 97.6897C123.735 84.1663 128.224 66.445 124.058 51.0209C121.173 40.3416 114.446 31.3032 106.075 26.8592C97.2586 22.169 86.1371 22.7433 79.0193 28.2402C70.931 34.4892 66.9811 46.4948 66.9407 64.9408C66.9407 67.826 66.9946 71.0531 67.1025 74.5672Z" fill="black"/>
<path fill-rule="evenodd" clip-rule="evenodd" d="M189.452 3.64862C192.056 -0.670521 198.015 -1.27112 201.33 2.47001L201.644 2.84523L201.645 2.84639C203.788 5.60063 203.013 8.89048 202.146 11.3775L202.147 11.3786C201.09 14.4322 199.405 18.6845 197.938 22.3958C197.2 24.2606 196.517 25.9912 195.986 27.3854C195.44 28.819 195.098 29.7914 194.997 30.2041L194.978 30.2732L194.956 30.3399C186.657 54.3662 185.772 54.6176 180.889 79.8012C183.415 76.3184 186.177 72.985 189.085 69.8129C193.057 65.1297 198.158 59.1264 205.598 58.3664L205.676 58.3595H206.431C214.448 58.3597 219.674 64.6055 220.414 72.0435L220.418 72.0896L220.749 76.8765L220.754 76.9295V76.9824C220.754 79.4736 220.49 82.0291 220.195 84.4742C219.898 86.9354 219.573 89.2485 219.409 91.4146C219.405 93.1923 219.23 94.9527 219.064 96.6263C218.893 98.348 218.732 99.9824 218.732 101.607C218.732 103.695 218.752 105.402 219.275 106.778C219.645 107.478 220.372 107.943 221.61 107.943C224.154 107.943 229.246 107.497 234.78 104.757C241.322 101.524 251.014 95.2968 258.424 83.8423C260.838 80.1112 262.319 76.6866 263.677 73.3246C265.027 69.9847 266.287 66.6181 268.223 63.2224C269.588 60.5463 272.236 59.7201 274.257 59.72C277.96 59.7201 281.834 62.6319 281.835 67.0563C281.834 68.3736 281.388 69.6509 281.08 70.6025L281.029 70.7602L280.948 70.9018C275.637 80.0112 271.623 89.7978 268.62 99.9537C267.596 104.454 266.302 109.36 265.977 113.953C265.979 115.271 266.064 116.798 266.425 118.121C266.795 119.479 267.378 120.351 268.171 120.751L268.187 120.759L268.202 120.767C268.652 121.006 269.438 121.279 270.528 121.279C271.587 121.279 272.805 120.942 274.168 120.375C275.511 119.816 276.847 119.1 278.216 118.401C282.528 115.715 287.762 111.972 291.261 109.238L291.278 109.223C297.015 104.877 306.065 94.217 313.814 83.9182C317.418 73.0688 318.074 68.2898 320.361 60.1573C321.24 56.3366 324.261 54.5981 327.22 54.5981C330.923 54.5986 334.796 57.5091 334.796 61.9333V62.129L334.747 62.32L330.899 77.0848C332.778 74.1849 334.743 71.325 336.794 68.548C338.532 66.082 340.739 63.4805 343.342 61.481C345.955 59.4732 349.054 58.0062 352.523 58.0061H353.934L354.004 58.0142C362.389 58.7922 367.124 66.1138 367.849 73.404L367.857 73.48V75.6047C367.857 78.7793 367.145 82.4782 366.836 85.3443C366.508 88.7336 366.17 92.191 365.483 95.6767C365.141 98.0765 364.621 100.659 364.217 103.087C363.804 105.559 363.486 108.007 363.48 110.43L363.801 113.725C363.931 114.64 364.223 115.022 364.417 115.188C364.62 115.362 364.912 115.468 365.333 115.468C365.898 115.468 366.617 115.29 367.459 114.942C368.08 114.685 368.717 114.357 369.339 114L369.957 113.635C374.829 110.655 379.387 106.039 383.847 101.875C388.495 97.1605 393.737 90.555 396.54 86.9753C397.455 85.8018 398.621 84.0101 399.499 82.59C399.881 81.9715 400.197 81.437 400.406 81.0776C400.408 81.0686 400.411 81.0606 400.413 81.0557C400.431 80.9949 400.45 80.947 400.46 80.9211C400.494 80.8335 400.533 80.7594 400.544 80.7381C400.607 80.6175 400.718 80.426 400.85 80.2052C401.13 79.7391 401.594 78.9959 402.207 78.0551C403.436 76.1722 405.285 73.4727 407.511 70.5818C409.734 67.6942 412.351 64.5912 415.115 61.9172C417.861 59.2613 420.844 56.9378 423.805 55.718L423.905 55.6765L425.534 55.2691H425.718C428.455 55.2691 430.686 57.1365 432.322 59.2941C432.822 59.9539 433.464 61.2222 434.118 62.6089C434.799 64.054 435.574 65.8081 436.344 67.5628C437.92 71.1559 439.415 74.6028 440.165 75.8314C440.88 77.0036 442.198 78.5148 443.822 79.9577C445.239 81.2158 446.815 82.3579 448.314 83.1436L448.951 83.4567L448.975 83.4682L448.997 83.4797C451.165 84.571 453.197 84.7653 456.427 85.0197C459.331 85.2485 462.767 85.2168 473.465 81.3585C473.557 81.3251 473.648 81.2906 473.738 81.2583L474.816 63.9176C474.854 59.8136 477.751 56.3108 482.061 56.3107C485.886 56.3109 489.638 59.6888 489.638 63.9993V64.0649L489.633 64.1305C488.608 76.0797 487.945 88.0151 487.265 99.9963V100.002C486.997 104.432 486.525 108.673 486.338 113.097C488.791 109.865 490.854 106.371 493.237 102.868L501.318 88.8801C506.689 79.3603 511.386 69.8411 515.754 59.6336L515.77 59.5945L515.788 59.5577C517.1 56.8979 519.381 55.9747 521.534 55.9747C523.553 55.9749 525.574 56.6843 527.113 57.9302C528.665 59.1866 529.788 61.0492 529.789 63.3064L529.801 63.3087L529.573 65.9445L529.556 66.3278C529.54 67.1828 529.667 67.777 529.854 68.2062C530.06 68.6806 530.38 69.0542 530.857 69.3905C531.358 69.7432 532.019 70.0469 532.885 70.355C533.763 70.6679 534.708 70.9384 535.835 71.2943L536.224 71.4243C536.606 71.5593 536.969 71.7071 537.29 71.8364C537.514 71.9268 537.723 72.0098 537.921 72.0838L538.497 72.2783L538.511 72.2829C541.754 73.2772 544.159 76.2358 543.992 79.8207V79.9508L543.988 79.9945C543.719 84.5909 539.49 87.8845 535.033 86.9568C532.628 86.4587 530.266 85.6382 527.907 84.3533L527.884 84.3418L527.861 84.328C525.359 82.8489 523.829 81.9418 522.436 81.2986L513.778 97.1845L513.772 97.1948L513.764 97.2063C508.691 106.141 503.596 114.38 497.83 122.64L497.8 122.683L497.768 122.724C494.844 126.351 491.45 130.987 485.756 132.141L485.608 132.171H484.115C479.571 132.171 475.263 129.853 473.292 125.465C471.794 122.412 471.468 118.716 471.468 115.598V112.072L471.48 111.975C472.087 107.268 472.426 102.268 472.737 97.4768C468.625 98.6811 464.367 99.5598 459.954 99.9998L459.88 100.007H457.435C452.427 100.007 447.674 99.138 442.963 97.1833C442.827 98.6638 442.601 100.161 442.39 101.466L442.383 101.505L442.375 101.546C439.926 112.845 432.957 123.481 423.125 129.531L423.124 129.529C419.221 132.048 414.893 133.515 410.522 133.515C408.644 133.515 406.81 133.125 405.435 132.781L405.402 132.774L405.37 132.764C399.032 130.87 394.642 125.258 393.195 119.356L393.172 119.264L393.162 119.168L392.591 114.28C387.979 118.694 382.855 123.611 376.862 126.826C373.322 128.984 369.349 130.459 364.968 130.459C362.328 130.459 359.386 129.698 356.796 128.21L356.767 128.194L356.739 128.176C350.689 124.338 348.94 117.527 348.94 111.147C348.94 104.514 350.33 97.4745 351.325 90.7493L352.999 75.8406C352.997 74.4571 352.944 73.6499 352.623 73.0967C352.598 73.0716 352.579 73.049 352.56 73.0311C352.548 73.0199 352.536 73.0122 352.529 73.0058C352.504 73.0162 352.464 73.0336 352.41 73.0645C352.245 73.159 352.023 73.3228 351.75 73.5743C351.203 74.0781 350.591 74.7982 349.979 75.6024C348.754 77.2145 347.716 78.9153 347.334 79.4916L347.324 79.5065C343.634 84.9337 339.94 90.7142 336.246 96.8484C329.538 108.425 321.357 127.272 318.419 133.347C316.627 137.052 313.175 138.072 310.258 137.996C308.802 137.958 307.41 137.652 306.278 137.241C305.223 136.857 304.144 136.292 303.549 135.566C302.222 133.951 301.696 132.506 301.64 131.144C301.592 129.945 301.967 128.742 302.054 128.281C302.146 127.772 302.327 126.972 302.478 126.33C302.555 125.999 302.627 125.698 302.679 125.48C302.706 125.371 302.728 125.282 302.743 125.22C302.75 125.19 302.757 125.166 302.761 125.15C302.763 125.142 302.764 125.135 302.765 125.13L302.767 125.126V125.123L302.773 125.102C303.628 121.838 304.484 118.589 305.339 115.345C303.778 116.87 302.171 118.36 300.499 119.811C297.138 122.882 293.205 126.438 288.956 129.441C284.703 132.447 280.025 134.977 275.164 135.891L275.093 135.905L275.022 135.912L271.243 136.252H271.175C261.797 136.252 253.268 130.369 251.798 120.253L251.793 120.227L251.112 114.036L251.102 113.953V113.868C251.102 112.59 251.17 111.303 251.288 110.017C245.829 113.838 239.939 117.104 233.645 119.716C229.775 121.498 225.511 122.581 221.228 122.581C219.037 122.581 216.852 122.216 214.679 121.476L214.645 121.464L214.611 121.451C207.837 118.768 204.932 112.667 204.216 106.175L204.211 106.144L204.21 106.113L203.878 101.326L203.875 101.274V101.22C203.875 96.3727 204.569 91.3815 204.89 86.7531L204.892 86.7082L205.897 76.5209V74.2108C205.897 73.9588 205.896 73.7335 205.892 73.5364C205.601 73.6855 205.251 73.9152 204.848 74.2281C204.009 74.8805 203.071 75.7934 202.147 76.7914C200.304 78.7814 198.655 80.9522 198.167 81.6174L198.139 81.6577L198.108 81.6945C194.463 86.0497 191.173 91.0706 187.761 95.9046C181.443 106.372 176.784 117.492 173.442 129.322C172.572 133.141 169.548 134.91 166.578 134.91C162.874 134.91 159.001 131.999 159 127.575V127.451L159.018 127.329L159.347 125.304C160.707 111.966 162.382 98.941 164.759 86.257C167.135 73.5731 168.273 65.8041 175.197 43.4105C178.574 32.485 181.972 21.4859 186.036 10.8331L186.041 10.8158C187.014 8.35209 188.094 5.89073 189.452 3.64862ZM421.725 73.7585C421.684 73.7778 421.596 73.8238 421.457 73.9266C421.172 74.1367 420.805 74.4836 420.369 74.9832C419.501 75.9774 418.503 77.4042 417.478 79.0611C415.446 82.3468 413.432 86.3432 412.277 89.1633C410.913 93.6088 409.6 97.4101 408.615 102.062C408.198 105.291 407.449 109.294 407.444 112.558L407.632 115.754C407.924 117.004 408.373 117.662 408.793 118.016C409.215 118.372 409.769 118.558 410.522 118.558C411.796 118.558 413.364 117.956 415.017 116.976C416.615 116.028 418.122 114.829 419.27 113.838C425.018 107.987 428.234 99.8496 428.234 91.7127C428.234 88.8354 427.418 85.2139 426.922 82.7857L426.919 82.788C426.717 81.7533 425.959 79.3274 424.837 77.185C424.277 76.116 423.667 75.1995 423.052 74.5711C422.466 73.9725 422.023 73.783 421.725 73.7585Z" fill="black"/>
<path fill-rule="evenodd" clip-rule="evenodd" d="M288.971 53.5872C294.209 48.6055 294.293 41.9117 289.496 39.4465C284.699 36.9813 276.19 45.3528 276.003 49.1704C275.834 52.988 282.665 59.579 288.954 53.5872H288.971Z" fill="black"/>
<path d="M21.0693 241.414H9.39331L7.46131 247H1.28731L11.8293 217.642H18.6753L29.2173 247H23.0013L21.0693 241.414ZM19.4733 236.71L15.2313 224.446L10.9893 236.71H19.4733ZM48.2778 247L41.8098 235.576H39.0378V247H33.1578V217.684H44.1618C46.4298 217.684 48.3618 218.09 49.9578 218.902C51.5538 219.686 52.7438 220.764 53.5278 222.136C54.3398 223.48 54.7458 224.992 54.7458 226.672C54.7458 228.604 54.1858 230.354 53.0658 231.922C51.9458 233.462 50.2798 234.526 48.0678 235.114L55.0818 247H48.2778ZM39.0378 231.166H43.9518C45.5478 231.166 46.7378 230.788 47.5218 230.032C48.3058 229.248 48.6978 228.17 48.6978 226.798C48.6978 225.454 48.3058 224.418 47.5218 223.69C46.7378 222.934 45.5478 222.556 43.9518 222.556H39.0378V231.166ZM58.636 232.3C58.636 229.416 59.28 226.84 60.568 224.572C61.884 222.276 63.662 220.498 65.902 219.238C68.17 217.95 70.704 217.306 73.504 217.306C76.78 217.306 79.65 218.146 82.114 219.826C84.578 221.506 86.3 223.83 87.28 226.798H80.518C79.846 225.398 78.894 224.348 77.662 223.648C76.458 222.948 75.058 222.598 73.462 222.598C71.754 222.598 70.228 223.004 68.884 223.816C67.568 224.6 66.532 225.72 65.776 227.176C65.048 228.632 64.684 230.34 64.684 232.3C64.684 234.232 65.048 235.94 65.776 237.424C66.532 238.88 67.568 240.014 68.884 240.826C70.228 241.61 71.754 242.002 73.462 242.002C75.058 242.002 76.458 241.652 77.662 240.952C78.894 240.224 79.846 239.16 80.518 237.76H87.28C86.3 240.756 84.578 243.094 82.114 244.774C79.678 246.426 76.808 247.252 73.504 247.252C70.704 247.252 68.17 246.622 65.902 245.362C63.662 244.074 61.884 242.296 60.568 240.028C59.28 237.76 58.636 235.184 58.636 232.3ZM116.62 217.684V247H110.74V234.526H98.1823V247H92.3023V217.684H98.1823V229.738H110.74V217.684H116.62ZM128.288 217.684V247H122.408V217.684H128.288ZM154.047 217.684V222.43H146.235V247H140.355V222.43H132.543V217.684H154.047ZM164.217 222.43V229.78H174.087V234.442H164.217V242.212H175.347V247H158.337V217.642H175.347V222.43H164.217ZM179.263 232.3C179.263 229.416 179.907 226.84 181.195 224.572C182.511 222.276 184.289 220.498 186.529 219.238C188.797 217.95 191.331 217.306 194.131 217.306C197.407 217.306 200.277 218.146 202.741 219.826C205.205 221.506 206.927 223.83 207.907 226.798H201.145C200.473 225.398 199.521 224.348 198.289 223.648C197.085 222.948 195.685 222.598 194.089 222.598C192.381 222.598 190.855 223.004 189.511 223.816C188.195 224.6 187.159 225.72 186.403 227.176C185.675 228.632 185.311 230.34 185.311 232.3C185.311 234.232 185.675 235.94 186.403 237.424C187.159 238.88 188.195 240.014 189.511 240.826C190.855 241.61 192.381 242.002 194.089 242.002C195.685 242.002 197.085 241.652 198.289 240.952C199.521 240.224 200.473 239.16 201.145 237.76H207.907C206.927 240.756 205.205 243.094 202.741 244.774C200.305 246.426 197.435 247.252 194.131 247.252C191.331 247.252 188.797 246.622 186.529 245.362C184.289 244.074 182.511 242.296 181.195 240.028C179.907 237.76 179.263 235.184 179.263 232.3ZM232.879 217.684V222.43H225.067V247H219.187V222.43H211.375V217.684H232.879ZM242.965 217.684V235.828C242.965 237.816 243.483 239.342 244.519 240.406C245.555 241.442 247.011 241.96 248.887 241.96C250.791 241.96 252.261 241.442 253.297 240.406C254.333 239.342 254.851 237.816 254.851 235.828V217.684H260.773V235.786C260.773 238.278 260.227 240.392 259.135 242.128C258.071 243.836 256.629 245.124 254.809 245.992C253.017 246.86 251.015 247.294 248.803 247.294C246.619 247.294 244.631 246.86 242.839 245.992C241.075 245.124 239.675 243.836 238.639 242.128C237.603 240.392 237.085 238.278 237.085 235.786V217.684H242.965ZM281.575 247L275.107 235.576H272.335V247H266.455V217.684H277.459C279.727 217.684 281.659 218.09 283.255 218.902C284.851 219.686 286.041 220.764 286.825 222.136C287.637 223.48 288.043 224.992 288.043 226.672C288.043 228.604 287.483 230.354 286.363 231.922C285.243 233.462 283.577 234.526 281.365 235.114L288.379 247H281.575ZM272.335 231.166H277.249C278.845 231.166 280.035 230.788 280.819 230.032C281.603 229.248 281.995 228.17 281.995 226.798C281.995 225.454 281.603 224.418 280.819 223.69C280.035 222.934 278.845 222.556 277.249 222.556H272.335V231.166ZM299.241 222.43V229.78H309.111V234.442H299.241V242.212H310.371V247H293.361V217.642H310.371V222.43H299.241ZM335.97 217.684C339.05 217.684 341.752 218.286 344.076 219.49C346.428 220.694 348.234 222.416 349.494 224.656C350.782 226.868 351.426 229.444 351.426 232.384C351.426 235.324 350.782 237.9 349.494 240.112C348.234 242.296 346.428 243.99 344.076 245.194C341.752 246.398 339.05 247 335.97 247H325.722V217.684H335.97ZM335.76 242.002C338.84 242.002 341.22 241.162 342.9 239.482C344.58 237.802 345.42 235.436 345.42 232.384C345.42 229.332 344.58 226.952 342.9 225.244C341.22 223.508 338.84 222.64 335.76 222.64H331.602V242.002H335.76ZM357.004 217.684H363.178L358.642 228.268H354.61L357.004 217.684ZM373.274 217.684V247H367.394V217.684H373.274ZM404.158 247H398.278L384.964 226.882V247H379.084V217.642H384.964L398.278 237.802V217.642H404.158V247ZM429.918 217.684V222.43H422.106V247H416.226V222.43H408.414V217.684H429.918ZM440.089 222.43V229.78H449.959V234.442H440.089V242.212H451.219V247H434.209V217.642H451.219V222.43H440.089ZM447.103 211.594L437.443 216.004V211.804L447.103 206.806V211.594ZM471.682 247L465.214 235.576H462.442V247H456.562V217.684H467.566C469.834 217.684 471.766 218.09 473.362 218.902C474.958 219.686 476.148 220.764 476.932 222.136C477.744 223.48 478.15 224.992 478.15 226.672C478.15 228.604 477.59 230.354 476.47 231.922C475.35 233.462 473.684 234.526 471.472 235.114L478.486 247H471.682ZM462.442 231.166H467.356C468.952 231.166 470.142 230.788 470.926 230.032C471.71 229.248 472.102 228.17 472.102 226.798C472.102 225.454 471.71 224.418 470.926 223.69C470.142 222.934 468.952 222.556 467.356 222.556H462.442V231.166ZM489.348 217.684V247H483.468V217.684H489.348ZM501.038 222.43V229.78H510.908V234.442H501.038V242.212H512.168V247H495.158V217.642H512.168V222.43H501.038ZM523.307 217.684V235.828C523.307 237.816 523.825 239.342 524.861 240.406C525.897 241.442 527.353 241.96 529.229 241.96C531.133 241.96 532.603 241.442 533.639 240.406C534.675 239.342 535.193 237.816 535.193 235.828V217.684H541.115V235.786C541.115 238.278 540.569 240.392 539.477 242.128C538.413 243.836 536.971 245.124 535.151 245.992C533.359 246.86 531.357 247.294 529.145 247.294C526.961 247.294 524.973 246.86 523.181 245.992C521.417 245.124 520.017 243.836 518.981 242.128C517.945 240.392 517.427 238.278 517.427 235.786V217.684H523.307ZM561.916 247L555.448 235.576H552.676V247H546.796V217.684H557.8C560.068 217.684 562 218.09 563.596 218.902C565.192 219.686 566.382 220.764 567.166 222.136C567.978 223.48 568.384 224.992 568.384 226.672C568.384 228.604 567.824 230.354 566.704 231.922C565.584 233.462 563.918 234.526 561.706 235.114L568.72 247H561.916ZM552.676 231.166H557.59C559.186 231.166 560.376 230.788 561.16 230.032C561.944 229.248 562.336 228.17 562.336 226.798C562.336 225.454 561.944 224.418 561.16 223.69C560.376 222.934 559.186 222.556 557.59 222.556H552.676V231.166Z" fill="black"/>
</svg>
